<?xml version="1.0" encoding="UTF-8"?>
<svg id="Camada_1" data-name="Camada 1" xmlns="http://www.w3.org/2000/svg" viewBox="0 0 821.15 248.24">
  <defs>
    <style>
      .cls-1 {
        fill: #4b48c2;
      }

      .cls-2 {
        fill: #6662e1;
      }
    </style>
  </defs>
  <path class="cls-2" d="m14.35,246.98c-6.31-1.28-10.62-4.94-12.99-10.91,0-72.76.02-145.52-.02-218.28,0-1.59-.53-3.17-.82-4.76C3.36,4.34,9.78.14,18.5.1,58.7-.07,98.91.12,139.12,0c9.65-.03,14.63,6.63,20.08,12.84.45.38.9.76,1.35,1.13.61.61,1.22,1.23,1.84,1.84.36.39.72.79,1.08,1.18,0,0-.09-.09-.09-.09.36.36.73.73,1.09,1.09,0,0-.09-.09-.09-.09.36.36.73.73,1.09,1.09,0,0-.09-.09-.09-.09.36.36.73.73,1.09,1.09,0,0-.1-.09-.1-.09.39.36.78.72,1.17,1.08.28.28.56.56.85.84.36.39.72.78,1.08,1.17,0,0-.09-.1-.09-.1.37.36.73.73,1.09,1.09,0,0-.1-.09-.09-.09.36.36.73.73,1.09,1.09,0,0-.09-.09-.09-.09.36.36.73.73,1.09,1.09,0,0-.09-.09-.09-.09.36.36.73.73,1.09,1.09,0,0-.09-.09-.09-.09.36.36.73.73,1.09,1.09,0,0-.09-.09-.09-.09.36.36.73.73,1.09,1.09,0,0-.09-.1-.09-.1.37.36.74.73,1.1,1.09,0,0-.1-.1-.1-.1.37.37.74.73,1.1,1.1,0,0-.11-.09-.11-.09.37.37.74.73,1.1,1.1,0,0-.1-.1-.1-.1.37.37.73.73,1.1,1.1,0,0-.11-.1-.1-.1.37.37.73.73,1.1,1.1,0,0-.1-.1-.1-.1.37.37.73.73,1.1,1.1,0,0-.11-.1-.11-.1.39.36.79.72,1.18,1.08.28.27.56.54.84.81.36.4.72.8,1.08,1.2,0,0-.1-.11-.1-.11.37.37.73.74,1.1,1.11,0,0-.11-.09-.11-.09.37.37.73.73,1.1,1.1,0,0-.1-.1-.1-.1.37.37.73.73,1.1,1.1,0,0-.1-.1-.1-.1.37.37.73.73,1.1,1.1,0,0-.1-.09-.1-.09.4.36.81.72,1.21,1.07,6.29,6.59,15.35,11.22,15.63,22.07-1.51,1.92-.82,4.17-.82,6.26-.05,48.23-.11,96.47.06,144.7.02,5-3.03,10.03,0,15.02-.56,8.77-8.05,16.73-16.01,17.02-1.62-1.76-3.76-1.05-5.67-1.05-56.13-.03-112.27-.01-168.4,0Zm175.13-19.09c.29-1.25.84-2.5.85-3.75.04-49.86.05-99.72,0-149.58,0-.82.94-2.35-1.03-2.48-3.08-3.99-7.1-.55-10.59-1.35-6.6-1.5-13.49-.56-19.85.03-12.55,1.18-22.35-5.53-22.49-18.13-.11-10.49-.14-20.97.04-31.46.06-3.29-1.01-4.24-4.26-4.23-36.29.1-72.57.11-108.86.02-3.56,0-6.05,1.16-7.68,4.27-.15-.08-.28-.2-.44-.23-.14-.02-.41.05-.42.1-.14,1.28-.35,2.56-.35,3.84-.02,65.31-.02,130.62,0,195.94,0,1.75-.65,3.72,1.06,5.15.77,4.48,3.54,6.39,7.95,6.18.78,2.61,2.97,1.66,4.61,1.67,48.87.05,97.73.05,146.6,0,1.63,0,3.82.95,4.66-1.61.71.28,1.43.57,2.14.85.59.84,1.2.85,1.82.03,2.56-1.18,5.3-2.13,6.22-5.26Zm-10.62-172.24c-9.41-9.74-18.27-18.91-27.3-28.24,0,7.95-.07,15.88.04,23.81.04,2.7,1.96,4.31,4.45,4.37,7.58.18,15.18.07,22.8.07Z"/>
  <path class="cls-2" d="m594.43,126.01c-.11-1.81-.22-3.63-.39-6.49-1.95,4.35-4.06,7.68-4.96,11.32-3.16,12.76-5.84,25.64-8.84,38.45-.58,2.49,1.19,6.78-3.6,6.67-4.19-.1-8.24,1.83-11.06-5.17-6.84-16.95-5.92-35.53-14.27-53.88,0,19.72,0,37.89,0,56.06-3.38,3.24-7.67,2.59-11.25,1.44-3.34-1.07-1.71-4.97-1.72-7.6-.1-26.62-.06-53.24-.05-79.87,5.95-2.03,12.14-1.2,18.06-.51,2.96.35,3.05,5.08,3.81,7.86,3.05,11.22,5.45,22.61,8.42,33.85.78,2.93,2.84,6.55,5.9,6.43,2.69-.11,2.31-4.05,2.93-6.6,3.12-12.84,6.56-25.6,9.79-38.41.64-2.54,2.15-3.4,4.61-3.6,18.45-1.51,17.76-1.5,18.6,16.89.91,19.89-1.36,39.77.54,59.66.32,3.32-.56,7.14-.67,10.75-.02.65.04,1.73-.28,1.88-3.77,1.82-7.8.56-11.72.79-1.93.12-3.2-.8-2.85-3.03,1.93-11.6.51-23.28.75-34.92.08-3.65,1.28-7.54-1-11.03,0,0,.08.13.08.13-.28-.36-.56-.72-.83-1.08Z"/>
  <path class="cls-2" d="m506.24,86.19c12.4,3.41,16.7,6.55,19.16,24.81,1.54,11.42-2.59,19.73-10.01,27.39-2.02,2.08-1.47,4.74-.35,6.9,3.32,6.4,5.08,13.47,9.21,19.56,1.81,2.66,3.01,7.41.94,9.8-3.02,3.49-13.6,1.43-15.23-2.27-3.83-8.72-7.79-17.41-11.06-26.35-1.93-5.28-4.85-4.8-8.71-3-1.99,9.03-.76,18.17-.72,27.24.03,6.05-3.71,4.57-6.94,4.69-3.31.12-6.43.8-6.37-4.7.27-26.14.21-52.29.03-78.44-.03-4.19,1.57-4.84,5.26-4.93,8.26-.19,16.57,1.09,24.78-.7Zm-15.94,27.44c0,3.5.28,7.02-.07,10.48-.4,4.01,1.04,5.34,4.95,4.8,5.03-.7,10.5-1.08,12.02-6.97,1.69-6.53,3.08-13.56-1.74-19.43-3.42-4.17-8.93-4.32-13.45-3.14-3.67.96-1.14,5.42-1.64,8.27-.34,1.94-.06,3.99-.07,5.98Z"/>
  <path class="cls-2" d="m277.41,85.99c10.46,0,14.43,3.99,14.91,13.57.33,6.49,3.38,12.9,3.83,18.65.59,7.44,5.06,13.47,4.65,21.16-.35,6.6,3.07,13.36,4.59,20.1.93,4.14,1.43,8.38,2.06,12.58.11.75,0,2.21-.08,2.22-4.28.3-8.6.8-12.86.53-2.55-.16-2.74-3.01-3.17-5.07-2.66-12.71-2.7-11.94-15.48-12.98-8.12-.66-9.05,3.98-9.1,9.17-.1,10.09-5.97,11.01-13.81,10.14-3.1-.35-3.94-1.3-3.18-4.45,2.62-10.93,6.06-21.82,7.16-32.93,1.45-14.71,7.18-28.3,9.34-42.72,1.1-7.32,3.46-12.57,11.15-9.96Zm1.36,24.15c-.39-.01-.77-.03-1.16-.04-1.64,8.03-3.27,16.05-4.92,24.08-2.37,11.47-1.58,12.28,10.3,10.76,1.64-.21,3.05-.38,2.59-2.56-2.27-10.75-4.54-21.49-6.81-32.24Z"/>
  <path class="cls-2" d="m689.47,150.44c6.06-1.47,8.59-.13,9.59,5.41,1.1,6.13,5.23,9.47,12.06,7.23,7.05-2.32,7.04-7.89,5.58-13.42-1.13-4.28-4.6-7.21-8.57-9.22-8.35-4.23-15.76-9.49-20.91-17.57-10.39-16.32-1.44-35.17,17.35-39.2,8.77-1.88,14.46,3.33,21.57,5.08,3.28.8,8.23,19.8,5.92,22.17-2.76,2.82-6.98,2.24-10.72,2.11-2.85-.1-3.81-1.88-4.15-4.57-.6-4.82-2.07-9.31-7.82-10.11-3.89-.54-7.5.53-9.21,4.36-2.23,5-1,9.67,2.3,13.94,4.97,6.42,13.57,7.33,19.18,12.92,6.27,6.25,10.48,12.69,10.94,22.29.52,10.62-2.84,18.1-11.67,23.16-10.13,5.8-20.06,3.43-29.5-2.03-4.99-2.89-9.76-15.51-8.03-21.09,1.28-4.11,4.97-.74,6.09-1.43Z"/>
  <path class="cls-2" d="m786.25,131.79c0,6.66.27,13.34-.08,19.98-.34,6.54,2.16,10.44,8.73,11.45,6.35.97,6.4-4.83,8.19-8.23,2.03-3.85,14.33-8.01,16.35-4.49,2.44,4.25.66,9.31-1.05,13.82-6.74,17.85-30.36,16.66-40.1,8.23-5.65-4.89-8.75-10.61-8.28-18.83.82-14.45.32-28.97.23-43.46-.05-8.31,2.67-15.63,8.19-21.6,1.89-2.04,5.42-3.32,8.32-3.54,6.31-.49,12.02-2.7,19.22.13,12.85,5.04,13.71,15.21,15.08,25.77.34,2.6.11,6.99-4.29,5.73-3.57-1.02-10.41,4.83-10.56-4.57-.12-7.98-4.63-13.31-10.57-13.2-6.52.12-9.27,4.57-9.73,9.95-.64,7.57-.16,15.23-.16,22.86.17,0,.34,0,.51,0Z"/>
  <path class="cls-2" d="m637.12,132.91c.05,5.8.11,11.59.16,17.39.08,10.04,2.59,10.82,11.67,10.4,5.41-.25,6.57-1.77,7.54-5.76,2.87-.88,1.72-3.29,1.72-5.05.08-19.27.29-38.54-.1-57.8-.14-6.69,4.03-4.75,7.48-5.14,4.09-.46,5.8.63,5.82,5.31.04,9.55-1.21,19.16.74,28.66-.02,13.02,1.13,26.18-.39,39.02-1.46,12.29-13.57,18.93-28.62,18.07-11-.63-19.08-8.84-20.73-21.08,1.43-1.56.83-3.49.83-5.26.04-19.48.21-38.96-.09-58.44-.08-5.06,1.28-6.4,6.35-6.45,5.45-.06,6.94,1.36,6.93,6.9,0,13.07-1.24,26.19.68,39.23Z"/>
  <path class="cls-2" d="m425.4,175.75c-1.86-6.12-1.2-12.32-1.11-18.6.33-23.4.17-46.8.2-70.2,11.83.01,23.66.11,35.49-.02,3.16-.03,4.21.87,4.46,4.19.41,5.33-1.02,7.61-6.77,6.98-4.78-.52-9.65-.12-14.48-.09-1.6.01-3.51-.42-3.84,2.05.01,6.98.23,13.96-.05,20.93-.16,4.04,1.36,5.31,5.21,5.04,3.64-.26,7.33.21,10.95-.1,4.49-.39,5.88,1.12,6.12,5.78.31,6.04-1.65,7.56-7.51,7.39-14.7-.41-14.71-.13-14.71,14.68,0,2.99-.02,5.98-.03,8.97,6.19,2.73,12.69.81,19.03,1.11,4.46.22,5.99,1.69,6.09,6.25.11,4.81-2.27,4.79-5.81,4.89-11.08.32-22.2-1.08-33.25.72Z"/>
  <path class="cls-2" d="m331.36,100.05c-.18,7.52,1.36,15.03.01,22.55-.46,2.55.65,3.52,3.31,3.44,5.48-.17,10.97.02,16.45-.09,2.24-.05,2.69.75,3.34,2.97,2.61,8.78-.52,11.44-9.12,10.16-4.23-.63-8.63-.09-12.95-.08-.35.38-.7.76-1.04,1.15.05.31,0,.61-.16.88-1.78,2.92-.61,6.13-.84,9.19-.65,8.53,1.17,17.15-1.01,25.63-.68,0-1.37,0-2.05,0-2.65-1.42-5.29-1.42-7.94,0-.67,0-1.34.01-2.01.02,0-27.97.06-55.94-.11-83.9-.02-3.94,1.1-5.17,5.06-5.07,9.98.26,19.97.07,29.96.1,1.76,0,4.1-.45,3.98,2.37-.2,4.53,1.17,10.18-7.09,8.77-4.53-.78-9.3-.16-13.96-.13-1.61.01-3.5-.4-3.84,2.05Z"/>
  <path class="cls-2" d="m397.16,157.91c.05,2.64.15,5.29.15,7.93.02,10.74-3.13,12.81-14.03,9.27,0-21.16.02-42.31.03-63.47,0-13.14,0-13.36-12.86-13.53-5.03-.07-3.96-3.12-4.14-5.98-.2-3.19.08-5.34,4.36-5.23,11.16.27,22.33.32,33.48,0,6.52-.19,12.23-.41,10.27,8.86-.23,1.09.44,1.9,1.6,2.16-.03,3.24-2.52,1.86-4,1.97-4.55.32-9.2-.63-13.63,1.11-2.15-1.88-2.04-.46-2.09,1.3-.19,7.53-.84,15.07-.68,22.59.23,11.02,1.01,22.02,1.56,33.03Z"/>
  <path class="cls-1" d="m331.36,100.05c.34-2.44,2.24-2.04,3.84-2.05,4.66-.03,9.43-.65,13.96.13,8.25,1.42,6.89-4.24,7.09-8.77.12-2.82-2.22-2.37-3.98-2.37-9.99-.03-19.98.16-29.96-.1-3.96-.1-5.09,1.13-5.06,5.07.16,27.97.1,55.94.11,83.9-1.09.11-1.88-.04-2.02-1.44-.94-9.64-1.15-19.58-.98-28.97.2-11.38.12-22.97.89-34.44.48-7.14.17-14.34.03-21.52-.06-2.99.32-3.9,3.99-3.73,11.3.52,22.63.3,33.95.14,3.09-.04,5.15.63,4.09,3.97-1.09,3.42,3.79,9.58-3.97,9.99-7.3.39-14.64.14-21.97.17Z"/>
  <path class="cls-1" d="m416.01,97.92c-1.16-.26-1.83-1.08-1.6-2.16,1.97-9.27-3.75-9.06-10.27-8.86-11.15.33-22.32.27-33.48,0-4.27-.1-4.56,2.04-4.36,5.23.18,2.87-.88,5.92,4.14,5.98,12.86.17,12.86.39,12.86,13.53,0,21.16-.02,42.31-.03,63.47-4.11-3.41-2.5-8.59-2.58-12.43-.41-19.59.27-39.21.69-58.82.06-2.93-.58-4.45-3.8-3.94-.98.15-1.99.04-2.99.04-11.28.03-11.22.03-10.35-11.25.16-2.02.55-3.01,2.77-3.01,15.64.02,31.28-.03,46.93-.07,1.65,0,2.52.64,2.16,2.41-1.14,1.29-1.11,2.59-.05,3.91,0,.69.01,1.38.02,2.07-.85.66-.82,1.3.03,1.94-.03.65-.07,1.31-.1,1.96Z"/>
  <path class="cls-1" d="m758.27,131.5c0,13.49-.13,26.97.08,40.45.06,4.01-1.47,4.57-5.16,5.17-8.74,1.41-10.45-1.72-10.33-10.16.39-25.91-.31-51.84-.65-77.76-.04-3.12.04-5.57,4.13-3.28.13.07.34,0,.49.04,3.76,1.05,9.04-2.49,11.17,1.76,1.6,3.2.36,7.83.36,11.83,0,10.66,0,21.31,0,31.97-.03,0-.06,0-.09,0Zm-14.02-1.03c0,13.14.34,26.29-.15,39.4-.23,6.28,3.51,4.97,7,5.12,3.49.15,6.31.47,6.25-4.85-.26-26.1-.27-52.21,0-78.32.05-5.32-2.75-4.99-6.24-4.85-3.48.14-7.26-1.2-7.02,5.09.49,12.79.15,25.6.15,38.41Z"/>
  <path class="cls-1" d="m.53,13.04c.28,1.59.82,3.17.82,4.76.03,72.76.02,145.52.02,218.28-1.79-2.1-1.3-4.7-1.3-7.07C.02,159.5.04,89.99.08,20.49c0-2.48.29-4.97.45-7.45Z"/>
  <path class="cls-1" d="m672.15,120.92c-1.96-9.5-.7-19.11-.74-28.66-.02-4.68-1.73-5.77-5.82-5.31-3.45.39-7.62-1.55-7.48,5.14.39,19.26.18,38.54.1,57.8,0,1.76,1.15,4.17-1.72,5.05-.07-21.92-.08-43.84-.26-65.76-.02-2.73.92-3.25,3.41-3.3,3.42-.07,6.86.76,10.3-.67,2.61-1.09,2.41,1.17,2.4,2.83-.06,10.96-.12,21.92-.18,32.87Z"/>
  <path class="cls-1" d="m14.35,246.98c56.13,0,112.27-.02,168.4,0,1.91,0,4.04-.71,5.67,1.05-8.12.02-16.25.05-24.37.05-47.72,0-95.43,0-143.15-.1-2.16,0-4.63,1-6.54-1.01Z"/>
  <path class="cls-1" d="m204.43,231.02c-3.02-4.99.02-10.01,0-15.02-.17-48.23-.11-96.47-.06-144.7,0-2.09-.69-4.34.82-6.26.06,54.45.12,108.91.13,163.36,0,.87-.59,1.75-.9,2.62Z"/>
  <path class="cls-1" d="m506.24,86.19c-8.21,1.79-16.52.51-24.78.7-3.68.08-5.29.73-5.26,4.93.18,26.15.23,52.29-.03,78.44-.06,5.5,3.06,4.82,6.37,4.7,3.23-.11,6.97,1.36,6.94-4.69-.05-9.07-1.27-18.22.72-27.24-.31,9.53,1.46,19.02.25,28.61-.42,3.29-.96,4.07-4.4,4.54-8.77,1.18-11.24-1.62-10.97-10.68.74-24.93.33-49.9.17-74.86-.02-3.59.64-4.92,4.56-4.75,8.8.39,17.62.24,26.43.31Z"/>
  <path class="cls-1" d="m637.12,132.91c-1.92-13.04-.68-26.16-.68-39.23,0-5.55-1.48-6.97-6.93-6.9-5.07.06-6.43,1.39-6.35,6.45.3,19.48.14,38.96.09,58.44,0,1.77.6,3.69-.83,5.26-2.24-5.78-1.46-11.87-.98-17.69,1.33-16.26.29-32.51.6-48.75.06-3.24.48-4.64,4.24-4.61,11.02.09,11.04-.09,11.02,11.14-.03,11.97-.11,23.93-.16,35.9Z"/>
  <path class="cls-1" d="m538.28,86.94c0,26.62-.05,53.24.05,79.87,0,2.62-1.62,6.53,1.72,7.6,3.58,1.15,7.87,1.8,11.25-1.44,1.46,2.21.13,2.83-1.78,3.01-1.15.1-2.36-.17-3.48.05-7.05,1.37-9.43-1.12-8.91-8.51.44-6.25-2.83-13.07-1.36-18.86,2.07-8.14,1.29-16.04,1.42-24.02.09-5.59-2.73-11.6-1.43-16.71,1.79-7.03.39-14.18,2.51-20.98Z"/>
  <path class="cls-1" d="m439.34,100.07c.33-2.46,2.24-2.03,3.84-2.05,4.83-.03,9.71-.43,14.48.09,5.74.62,7.18-1.65,6.77-6.98-.25-3.32-1.3-4.23-4.46-4.19-11.83.13-23.66.03-35.49.02,6.22-2.16,12.62-.52,18.93-.91,4.3-.27,8.63-.06,12.95-.06,9.69,0,10.55,1.15,9.1,11.01-.41,2.81-2.08,2.97-4.21,2.98-7.31.02-14.61.06-21.92.1Z"/>
  <path class="cls-1" d="m425.4,175.75c11.05-1.8,22.17-.4,33.25-.72,3.54-.1,5.92-.09,5.81-4.89-.11-4.57-1.64-6.03-6.09-6.25-6.34-.31-12.84,1.61-19.03-1.11,7.46.06,14.92.3,22.37.1,3.34-.09,4.41,1.44,3.53,4.06-1.01,3.02,3.43,8.68-3.05,8.92-12.24.46-24.52-.01-36.79-.09Z"/>
  <path class="cls-1" d="m397.16,157.91c-.55-11.01-1.33-22.02-1.56-33.03-.16-7.52.49-15.06.68-22.59.05-1.76-.06-3.18,2.09-1.3-2.02,3.21-1.05,6.78-.98,10.15.31,14.18-1.05,28.38.68,42.55.17,1.35-.59,2.81-.91,4.22Z"/>
  <path class="cls-1" d="m595.18,126.96c2.28,3.49,1.07,7.39,1,11.03-.24,11.64,1.17,23.32-.75,34.92-.08-15.32-.16-30.64-.24-45.96Z"/>
  <path class="cls-1" d="m329.35,175.85c2.18-8.47.36-17.1,1.01-25.63.23-3.07-.94-6.27.84-9.19.04,10.63.1,21.25.12,31.88,0,1.36.62,3.26-1.97,2.94Z"/>
  <path class="cls-1" d="m319.36,175.85c2.64-1.42,5.29-1.43,7.94,0-2.65,0-5.29,0-7.94,0Z"/>
  <path class="cls-2" d="m416.07,91.95c-1.06-1.32-1.09-2.62.05-3.91-.02,1.3-.04,2.61-.05,3.91Z"/>
  <path class="cls-2" d="m416.11,95.96c-.85-.63-.88-1.28-.03-1.94.01.65.02,1.29.03,1.94Z"/>
  <path class="cls-1" d="m173.46,26.99c-.36-.36-.73-.73-1.09-1.09.36.36.73.73,1.09,1.09Z"/>
  <path class="cls-1" d="m185.48,38.98c-.37-.37-.73-.74-1.1-1.11.37.37.73.74,1.1,1.11Z"/>
  <path class="cls-1" d="m169.47,22.99c-.36-.39-.72-.78-1.08-1.17.36.39.72.78,1.08,1.17Z"/>
  <path class="cls-1" d="m167.54,20.97c-.39-.36-.78-.72-1.17-1.08.39.36.78.72,1.17,1.08Z"/>
  <path class="cls-1" d="m175.46,28.99c-.36-.36-.73-.73-1.09-1.09.36.36.73.73,1.09,1.09Z"/>
  <path class="cls-1" d="m170.47,23.99c-.36-.36-.73-.73-1.09-1.09.36.36.73.73,1.09,1.09Z"/>
  <path class="cls-1" d="m176.48,29.98c-.37-.36-.74-.73-1.1-1.09.37.36.74.73,1.1,1.09Z"/>
  <path class="cls-1" d="m177.48,30.98c-.37-.37-.73-.73-1.1-1.1.37.37.74.73,1.1,1.1Z"/>
  <path class="cls-1" d="m171.47,24.99c-.36-.36-.73-.73-1.09-1.09.36.36.73.73,1.09,1.09Z"/>
  <path class="cls-1" d="m178.48,31.98c-.37-.37-.73-.73-1.1-1.1.37.37.73.73,1.1,1.1Z"/>
  <path class="cls-1" d="m166.47,19.99c-.36-.36-.73-.73-1.09-1.09.36.36.73.73,1.09,1.09Z"/>
  <path class="cls-1" d="m165.47,18.99c-.36-.36-.73-.73-1.09-1.09.36.36.73.73,1.09,1.09Z"/>
  <path class="cls-1" d="m179.48,32.98c-.37-.37-.73-.73-1.1-1.1.37.37.73.73,1.1,1.1Z"/>
  <path class="cls-1" d="m594.43,126.01c.28.36.55.72.83,1.08-.28-.36-.55-.72-.83-1.08Z"/>
  <path class="cls-1" d="m180.47,33.99c-.37-.37-.73-.73-1.1-1.1.37.37.73.73,1.1,1.1Z"/>
  <path class="cls-1" d="m181.47,34.99c-.37-.37-.73-.73-1.1-1.1.37.37.73.73,1.1,1.1Z"/>
  <path class="cls-1" d="m164.47,17.99c-.36-.36-.73-.73-1.09-1.09.36.36.73.73,1.09,1.09Z"/>
  <path class="cls-1" d="m331.36,140.14c.35-.38.7-.76,1.04-1.15-.35.38-.7.76-1.04,1.15Z"/>
  <path class="cls-1" d="m182.55,35.97c-.39-.36-.79-.72-1.18-1.08.39.36.79.72,1.18,1.08Z"/>
  <path class="cls-1" d="m184.48,37.98c-.36-.4-.72-.8-1.08-1.2.36.4.72.8,1.08,1.2Z"/>
  <path class="cls-1" d="m163.46,16.99c-.36-.39-.72-.79-1.08-1.18.36.39.72.79,1.08,1.18Z"/>
  <path class="cls-1" d="m189.58,42.97c-.4-.36-.81-.72-1.21-1.07.4.36.81.72,1.21,1.07Z"/>
  <path class="cls-1" d="m188.47,41.99c-.37-.37-.73-.73-1.1-1.1.37.37.73.73,1.1,1.1Z"/>
  <path class="cls-1" d="m187.47,40.99c-.37-.37-.73-.73-1.1-1.1.37.37.73.73,1.1,1.1Z"/>
  <path class="cls-1" d="m160.55,13.97c-.45-.38-.9-.76-1.35-1.13.45.38.9.76,1.35,1.13Z"/>
  <path class="cls-1" d="m186.47,39.99c-.37-.37-.73-.73-1.1-1.1.37.37.73.73,1.1,1.1Z"/>
  <path class="cls-1" d="m172.46,25.99c-.36-.36-.73-.73-1.09-1.09.36.36.73.73,1.09,1.09Z"/>
  <path class="cls-1" d="m174.46,27.99c-.36-.36-.73-.73-1.09-1.09.36.36.73.73,1.09,1.09Z"/>
  <path class="cls-1" d="m23.43,232.21c51.96.02,103.91.04,155.87.06-.84,2.56-3.03,1.61-4.66,1.61-48.87.05-97.73.05-146.6,0-1.64,0-3.83.94-4.61-1.67Z"/>
  <path class="cls-1" d="m15.62,21.24c-.01,66.6-.03,133.2-.05,199.8,0,1.66-.06,3.33-.09,4.99-1.71-1.43-1.06-3.4-1.06-5.15-.03-65.31-.03-130.62,0-195.94,0-1.28.21-2.56.35-3.84,0-.05.28-.12.42-.1.16.03.29.15.44.23Z"/>
  <path class="cls-1" d="m189.48,227.9c-.04-28.16-.09-56.31-.13-84.47-.03-23.78-.04-47.56-.06-71.34,1.97.13,1.03,1.66,1.03,2.48.05,49.86.05,99.72,0,149.58,0,1.25-.55,2.5-.85,3.75Z"/>
  <path class="cls-1" d="m181.44,233.12c.61,0,1.21.02,1.82.03-.62.82-1.23.81-1.82-.03Z"/>
  <path class="cls-2" d="m744.25,130.47c0-12.8.34-25.62-.15-38.41-.24-6.29,3.53-4.95,7.02-5.09,3.48-.14,6.29-.47,6.24,4.85-.26,26.1-.26,52.21,0,78.32.05,5.32-2.76,4.99-6.25,4.85-3.49-.15-7.24,1.16-7-5.12.49-13.12.15-26.27.14-39.4Z"/>
  <path class="cls-2" d="m106.18,195.9c-3.05,11.62-13.01,19.35-22.92,17.81-11.86-1.84-19.46-10.13-18.91-20.59.66-12.43,11.42-20.42,25.79-19.18,1.24.11,2.99,1.68,3.38-1.04,1.83-3.8.86-7.84.76-11.72-.31-12.04,1.2-24.13-.75-36.13-.85-28.11-.6-24.48,21.98-31.09,10.18-2.98,20.43-5.77,30.71-8.4,8.86-2.26,14.11,1.8,14.14,10.76.07,25.66.13,51.32.04,76.98-.05,15.79-13.1,26.9-27.29,23.48-8.68-2.09-15.48-11.16-14.66-19.55,1.02-10.43,10.11-19.74,20.15-19.15,7.44.44,9.51-1.94,8.91-9.05-.62-7.28-.06-14.65-.17-21.98-.06-3.98-1.1-6.39-6.25-5.22-10.64,2.43-21.49,4.01-31.14,9.64-.91.53-2.23.38-3.35.54-1.9,1.31-1.17,3.31-1.17,5.02-.06,14.89-.14,29.79.01,44.68.05,4.72-.98,9.54.74,14.19Z"/>
  <path class="cls-2" d="m110.32,56.17c3.84.55,5.61,3.21,5.97,6.64.38,3.53-.42,6.82-4.37,8.24-20.92-.02-41.84-.06-62.75-.02-1.58,0-3.17.54-4.75.82-4.85-1.03-6.64-4.24-6.32-8.93.32-4.56,3.18-6.36,7.35-6.74,1.76.27,3.51.77,5.27.78,16.28.06,32.56.11,48.84-.02,3.58-.03,7.28.97,10.75-.77Z"/>
  <path class="cls-2" d="m77.43,110.19c-4.2,4.01-9.66,1.52-14.47,2.56-5.25,1.13-10.94.1-16.43.27-4.7.15-8.09-2.15-8.98-6.27-.93-4.34,1.19-8.06,5.93-9.52,10.3,1.69,20.66.37,30.99.68,0,0-.08-.11-.08-.11.7.38,1.39.75,2.09,1.13,0,0-.1-.06-.1-.06.36.37.73.73,1.09,1.1,0,0-.06-.1-.06-.09.36.7.71,1.4,1.07,2.1,0,0-.07-.1-.07-.1-.33,2.77-.66,5.54-1,8.31Z"/>
  <path class="cls-2" d="m53.74,152.89c-5.57-.53-12.18,2.3-15.69-5.2-1.52-3.25.01-5.38,1.3-7.79,1.17-2.2,2.97-2.35,5.43-2.03,8.5,1.12,16.93-1.78,25.61-.15,4.62.87,5.4,3.69,5.65,6.78.27,3.32-.84,7.1-5,7.39-5.75.4-11.43,2.14-17.29,1.01Z"/>
  <path class="cls-1" d="m44.42,71.85c1.58-.29,3.16-.82,4.75-.82,20.92-.04,41.83,0,62.75.02-1.06.34-2.12.98-3.18.98-21.44-.01-42.88-.1-64.32-.17Z"/>
  <path class="cls-1" d="m110.32,56.17c-3.47,1.74-7.18.74-10.75.77-16.28.13-32.56.08-48.84.02-1.76,0-3.52-.51-5.27-.78,21.62,0,43.24,0,64.87,0Z"/>
  <path class="cls-1" d="m106.18,195.9c-1.72-4.65-.69-9.47-.74-14.19-.16-14.89-.07-29.79-.01-44.68,0-1.71-.73-3.71,1.17-5.02-.14,21.3-.28,42.59-.42,63.89Z"/>
  <path class="cls-1" d="m93.53,125.05c1.95,12.01.44,24.09.75,36.13.1,3.88,1.07,7.92-.76,11.72,0-15.95,0-31.9,0-47.85Z"/>
  <path class="cls-1" d="m74.48,97.93c-10.33-.31-20.69,1-30.99-.68,10.33-.03,20.7-1.33,30.99.68Z"/>
  <path class="cls-1" d="m77.43,110.19c.33-2.77.66-5.54,1-8.31,1.79,3.02,1.54,5.8-1,8.31Z"/>
  <path class="cls-1" d="m78.49,101.98c-.36-.7-.71-1.4-1.07-2.1.36.7.71,1.4,1.07,2.1Z"/>
  <path class="cls-1" d="m76.49,98.94c-.7-.38-1.39-.75-2.09-1.13.7.37,1.39.75,2.09,1.13Z"/>
  <path class="cls-1" d="m77.48,99.98c-.36-.37-.73-.73-1.09-1.1.36.36.73.73,1.09,1.1Z"/>
</svg>